<mxfile host="Electron" agent="Mozilla/5.0 (Macintosh; Intel Mac OS X 10_15_7) AppleWebKit/537.36 (KHTML, like Gecko) draw.io/26.0.3 Chrome/130.0.6723.137 Electron/33.2.1 Safari/537.36" version="26.0.3">
  <diagram name="Page-1" id="6Qq5FUkDGceZ1Z9ugbox">
    <mxGraphModel dx="984" dy="746" grid="1" gridSize="10" guides="1" tooltips="1" connect="1" arrows="1" fold="1" page="1" pageScale="1" pageWidth="850" pageHeight="1100" math="0" shadow="0">
      <root>
        <mxCell id="0" />
        <mxCell id="1" parent="0" />
        <mxCell id="8kqo_DGMX6skKx_zLnV2-13" value="" style="swimlane;startSize=0;" vertex="1" parent="1">
          <mxGeometry x="100" y="30" width="690" height="710" as="geometry" />
        </mxCell>
        <mxCell id="8kqo_DGMX6skKx_zLnV2-26" value="register" style="ellipse;whiteSpace=wrap;html=1;" vertex="1" parent="8kqo_DGMX6skKx_zLnV2-13">
          <mxGeometry x="240" y="30" width="105" height="60" as="geometry" />
        </mxCell>
        <mxCell id="8kqo_DGMX6skKx_zLnV2-29" value="login" style="ellipse;whiteSpace=wrap;html=1;" vertex="1" parent="8kqo_DGMX6skKx_zLnV2-13">
          <mxGeometry x="340" y="300" width="105" height="60" as="geometry" />
        </mxCell>
        <mxCell id="8kqo_DGMX6skKx_zLnV2-34" value="cari produk" style="ellipse;whiteSpace=wrap;html=1;" vertex="1" parent="8kqo_DGMX6skKx_zLnV2-13">
          <mxGeometry x="80" y="120" width="105" height="60" as="geometry" />
        </mxCell>
        <mxCell id="8kqo_DGMX6skKx_zLnV2-37" value="lihat produk" style="ellipse;whiteSpace=wrap;html=1;" vertex="1" parent="8kqo_DGMX6skKx_zLnV2-13">
          <mxGeometry x="235" y="220" width="105" height="60" as="geometry" />
        </mxCell>
        <mxCell id="8kqo_DGMX6skKx_zLnV2-40" value="tambah produk ke cart" style="ellipse;whiteSpace=wrap;html=1;" vertex="1" parent="8kqo_DGMX6skKx_zLnV2-13">
          <mxGeometry x="50" y="220" width="105" height="60" as="geometry" />
        </mxCell>
        <mxCell id="8kqo_DGMX6skKx_zLnV2-42" value="checkout" style="ellipse;whiteSpace=wrap;html=1;" vertex="1" parent="8kqo_DGMX6skKx_zLnV2-13">
          <mxGeometry x="70" y="325" width="105" height="60" as="geometry" />
        </mxCell>
        <mxCell id="8kqo_DGMX6skKx_zLnV2-44" value="feedback" style="ellipse;whiteSpace=wrap;html=1;" vertex="1" parent="8kqo_DGMX6skKx_zLnV2-13">
          <mxGeometry x="222.5" y="570" width="105" height="60" as="geometry" />
        </mxCell>
        <mxCell id="8kqo_DGMX6skKx_zLnV2-52" value="&amp;lt;&amp;lt;extend&amp;gt;&amp;gt;" style="html=1;verticalAlign=bottom;labelBackgroundColor=none;endArrow=open;endFill=0;dashed=1;rounded=0;entryX=0.5;entryY=0;entryDx=0;entryDy=0;exitX=0.695;exitY=0.917;exitDx=0;exitDy=0;exitPerimeter=0;" edge="1" parent="8kqo_DGMX6skKx_zLnV2-13" source="8kqo_DGMX6skKx_zLnV2-26" target="8kqo_DGMX6skKx_zLnV2-29">
          <mxGeometry width="160" relative="1" as="geometry">
            <mxPoint x="305" y="220" as="sourcePoint" />
            <mxPoint x="465" y="220" as="targetPoint" />
          </mxGeometry>
        </mxCell>
        <mxCell id="8kqo_DGMX6skKx_zLnV2-53" value="&amp;lt;&amp;lt;include&amp;gt;&amp;gt;" style="html=1;verticalAlign=bottom;labelBackgroundColor=none;endArrow=open;endFill=0;dashed=1;rounded=0;exitX=1;exitY=0.5;exitDx=0;exitDy=0;entryX=0;entryY=1;entryDx=0;entryDy=0;" edge="1" parent="8kqo_DGMX6skKx_zLnV2-13" source="8kqo_DGMX6skKx_zLnV2-42" target="8kqo_DGMX6skKx_zLnV2-29">
          <mxGeometry width="160" relative="1" as="geometry">
            <mxPoint x="200" y="390" as="sourcePoint" />
            <mxPoint x="360" y="390" as="targetPoint" />
          </mxGeometry>
        </mxCell>
        <mxCell id="8kqo_DGMX6skKx_zLnV2-56" value="&amp;lt;&amp;lt;include&amp;gt;&amp;gt;" style="html=1;verticalAlign=bottom;labelBackgroundColor=none;endArrow=open;endFill=0;dashed=1;rounded=0;exitX=1;exitY=1;exitDx=0;exitDy=0;entryX=0.248;entryY=0;entryDx=0;entryDy=0;entryPerimeter=0;" edge="1" parent="8kqo_DGMX6skKx_zLnV2-13" source="8kqo_DGMX6skKx_zLnV2-34" target="8kqo_DGMX6skKx_zLnV2-37">
          <mxGeometry width="160" relative="1" as="geometry">
            <mxPoint x="195" y="180" as="sourcePoint" />
            <mxPoint x="276" y="151" as="targetPoint" />
          </mxGeometry>
        </mxCell>
        <mxCell id="8kqo_DGMX6skKx_zLnV2-58" value="&amp;lt;&amp;lt;include&amp;gt;&amp;gt;" style="html=1;verticalAlign=bottom;labelBackgroundColor=none;endArrow=open;endFill=0;dashed=1;rounded=0;entryX=0;entryY=0.5;entryDx=0;entryDy=0;exitX=1;exitY=0.5;exitDx=0;exitDy=0;" edge="1" parent="8kqo_DGMX6skKx_zLnV2-13" source="8kqo_DGMX6skKx_zLnV2-40" target="8kqo_DGMX6skKx_zLnV2-37">
          <mxGeometry width="160" relative="1" as="geometry">
            <mxPoint x="345" y="210" as="sourcePoint" />
            <mxPoint x="335" y="425" as="targetPoint" />
          </mxGeometry>
        </mxCell>
        <mxCell id="8kqo_DGMX6skKx_zLnV2-59" value="&amp;lt;&amp;lt;include&amp;gt;&amp;gt;" style="html=1;verticalAlign=bottom;labelBackgroundColor=none;endArrow=open;endFill=0;dashed=1;rounded=0;exitX=0.5;exitY=0;exitDx=0;exitDy=0;entryX=0.5;entryY=1;entryDx=0;entryDy=0;" edge="1" parent="8kqo_DGMX6skKx_zLnV2-13" source="8kqo_DGMX6skKx_zLnV2-44" target="8kqo_DGMX6skKx_zLnV2-29">
          <mxGeometry width="160" relative="1" as="geometry">
            <mxPoint x="195" y="390" as="sourcePoint" />
            <mxPoint x="366" y="361" as="targetPoint" />
          </mxGeometry>
        </mxCell>
        <mxCell id="8kqo_DGMX6skKx_zLnV2-60" value="&amp;lt;&amp;lt;extend&amp;gt;&amp;gt;" style="html=1;verticalAlign=bottom;labelBackgroundColor=none;endArrow=open;endFill=0;dashed=1;rounded=0;entryX=0.5;entryY=1;entryDx=0;entryDy=0;exitX=0.5;exitY=0;exitDx=0;exitDy=0;" edge="1" parent="8kqo_DGMX6skKx_zLnV2-13" source="8kqo_DGMX6skKx_zLnV2-44" target="8kqo_DGMX6skKx_zLnV2-37">
          <mxGeometry width="160" relative="1" as="geometry">
            <mxPoint x="225" y="300" as="sourcePoint" />
            <mxPoint x="305" y="515" as="targetPoint" />
          </mxGeometry>
        </mxCell>
        <mxCell id="8kqo_DGMX6skKx_zLnV2-62" value="tambah produk" style="ellipse;whiteSpace=wrap;html=1;" vertex="1" parent="8kqo_DGMX6skKx_zLnV2-13">
          <mxGeometry x="530" y="140" width="105" height="60" as="geometry" />
        </mxCell>
        <mxCell id="8kqo_DGMX6skKx_zLnV2-64" value="&amp;lt;&amp;lt;include&amp;gt;&amp;gt;" style="html=1;verticalAlign=bottom;labelBackgroundColor=none;endArrow=open;endFill=0;dashed=1;rounded=0;exitX=0.01;exitY=0.683;exitDx=0;exitDy=0;entryX=1;entryY=0;entryDx=0;entryDy=0;exitPerimeter=0;" edge="1" parent="8kqo_DGMX6skKx_zLnV2-13" source="8kqo_DGMX6skKx_zLnV2-62" target="8kqo_DGMX6skKx_zLnV2-29">
          <mxGeometry width="160" relative="1" as="geometry">
            <mxPoint x="490" y="220" as="sourcePoint" />
            <mxPoint x="582" y="269" as="targetPoint" />
          </mxGeometry>
        </mxCell>
        <mxCell id="8kqo_DGMX6skKx_zLnV2-18" value="pengguna baru" style="shape=umlActor;verticalLabelPosition=bottom;verticalAlign=top;html=1;" vertex="1" parent="1">
          <mxGeometry x="40" y="130" width="30" height="60" as="geometry" />
        </mxCell>
        <mxCell id="8kqo_DGMX6skKx_zLnV2-23" value="customer" style="shape=umlActor;verticalLabelPosition=bottom;verticalAlign=top;html=1;" vertex="1" parent="1">
          <mxGeometry x="40" y="300" width="30" height="60" as="geometry" />
        </mxCell>
        <mxCell id="8kqo_DGMX6skKx_zLnV2-25" value="penjual" style="shape=umlActor;verticalLabelPosition=bottom;verticalAlign=top;html=1;" vertex="1" parent="1">
          <mxGeometry x="800" y="290" width="30" height="60" as="geometry" />
        </mxCell>
        <mxCell id="8kqo_DGMX6skKx_zLnV2-31" value="" style="endArrow=none;html=1;rounded=0;entryX=0;entryY=0.5;entryDx=0;entryDy=0;exitX=1;exitY=0.3333333333333333;exitDx=0;exitDy=0;exitPerimeter=0;" edge="1" parent="1" source="8kqo_DGMX6skKx_zLnV2-23" target="8kqo_DGMX6skKx_zLnV2-29">
          <mxGeometry relative="1" as="geometry">
            <mxPoint x="120" y="310" as="sourcePoint" />
            <mxPoint x="270" y="310" as="targetPoint" />
          </mxGeometry>
        </mxCell>
        <mxCell id="8kqo_DGMX6skKx_zLnV2-28" value="" style="endArrow=none;html=1;rounded=0;exitX=1;exitY=0.3333333333333333;exitDx=0;exitDy=0;exitPerimeter=0;entryX=0;entryY=0.5;entryDx=0;entryDy=0;" edge="1" parent="1" source="8kqo_DGMX6skKx_zLnV2-18" target="8kqo_DGMX6skKx_zLnV2-26">
          <mxGeometry relative="1" as="geometry">
            <mxPoint x="210" y="90" as="sourcePoint" />
            <mxPoint x="370" y="90" as="targetPoint" />
          </mxGeometry>
        </mxCell>
        <mxCell id="8kqo_DGMX6skKx_zLnV2-33" value="" style="endArrow=none;html=1;rounded=0;exitX=1;exitY=0.5;exitDx=0;exitDy=0;entryX=0;entryY=0.3333333333333333;entryDx=0;entryDy=0;entryPerimeter=0;" edge="1" parent="1" source="8kqo_DGMX6skKx_zLnV2-29" target="8kqo_DGMX6skKx_zLnV2-25">
          <mxGeometry relative="1" as="geometry">
            <mxPoint x="500" y="309.5" as="sourcePoint" />
            <mxPoint x="660" y="309.5" as="targetPoint" />
          </mxGeometry>
        </mxCell>
        <mxCell id="8kqo_DGMX6skKx_zLnV2-35" value="" style="endArrow=none;html=1;rounded=0;entryX=0;entryY=0.5;entryDx=0;entryDy=0;exitX=1;exitY=0.3333333333333333;exitDx=0;exitDy=0;exitPerimeter=0;" edge="1" parent="1" source="8kqo_DGMX6skKx_zLnV2-18" target="8kqo_DGMX6skKx_zLnV2-34">
          <mxGeometry relative="1" as="geometry">
            <mxPoint x="170" y="280" as="sourcePoint" />
            <mxPoint x="330" y="280" as="targetPoint" />
          </mxGeometry>
        </mxCell>
        <mxCell id="8kqo_DGMX6skKx_zLnV2-36" value="" style="endArrow=none;html=1;rounded=0;exitX=1;exitY=0.3333333333333333;exitDx=0;exitDy=0;exitPerimeter=0;entryX=0.095;entryY=0.733;entryDx=0;entryDy=0;entryPerimeter=0;" edge="1" parent="1" source="8kqo_DGMX6skKx_zLnV2-23" target="8kqo_DGMX6skKx_zLnV2-34">
          <mxGeometry relative="1" as="geometry">
            <mxPoint x="180" y="270" as="sourcePoint" />
            <mxPoint x="340" y="270" as="targetPoint" />
          </mxGeometry>
        </mxCell>
        <mxCell id="8kqo_DGMX6skKx_zLnV2-41" value="" style="endArrow=none;html=1;rounded=0;entryX=0;entryY=0.5;entryDx=0;entryDy=0;exitX=1;exitY=0.3333333333333333;exitDx=0;exitDy=0;exitPerimeter=0;" edge="1" parent="1" source="8kqo_DGMX6skKx_zLnV2-23" target="8kqo_DGMX6skKx_zLnV2-40">
          <mxGeometry relative="1" as="geometry">
            <mxPoint x="150" y="280" as="sourcePoint" />
            <mxPoint x="310" y="280" as="targetPoint" />
          </mxGeometry>
        </mxCell>
        <mxCell id="8kqo_DGMX6skKx_zLnV2-54" value="" style="endArrow=none;html=1;rounded=0;entryX=0;entryY=0.5;entryDx=0;entryDy=0;exitX=1;exitY=0.3333333333333333;exitDx=0;exitDy=0;exitPerimeter=0;" edge="1" parent="1" source="8kqo_DGMX6skKx_zLnV2-23" target="8kqo_DGMX6skKx_zLnV2-44">
          <mxGeometry relative="1" as="geometry">
            <mxPoint x="60" y="330" as="sourcePoint" />
            <mxPoint x="340" y="560" as="targetPoint" />
          </mxGeometry>
        </mxCell>
        <mxCell id="8kqo_DGMX6skKx_zLnV2-55" value="" style="endArrow=none;html=1;rounded=0;entryX=0;entryY=0.3333333333333333;entryDx=0;entryDy=0;exitX=1;exitY=0.5;exitDx=0;exitDy=0;entryPerimeter=0;" edge="1" parent="1" source="8kqo_DGMX6skKx_zLnV2-44" target="8kqo_DGMX6skKx_zLnV2-25">
          <mxGeometry relative="1" as="geometry">
            <mxPoint x="590" y="420" as="sourcePoint" />
            <mxPoint x="750" y="660" as="targetPoint" />
          </mxGeometry>
        </mxCell>
        <mxCell id="8kqo_DGMX6skKx_zLnV2-63" value="" style="endArrow=none;html=1;rounded=0;exitX=1;exitY=0.5;exitDx=0;exitDy=0;" edge="1" parent="1" source="8kqo_DGMX6skKx_zLnV2-62">
          <mxGeometry relative="1" as="geometry">
            <mxPoint x="555" y="370" as="sourcePoint" />
            <mxPoint x="800" y="310" as="targetPoint" />
          </mxGeometry>
        </mxCell>
        <mxCell id="8kqo_DGMX6skKx_zLnV2-43" value="" style="endArrow=none;html=1;rounded=0;entryX=0;entryY=0.5;entryDx=0;entryDy=0;exitX=1;exitY=0.3333333333333333;exitDx=0;exitDy=0;exitPerimeter=0;" edge="1" parent="1" source="8kqo_DGMX6skKx_zLnV2-23" target="8kqo_DGMX6skKx_zLnV2-42">
          <mxGeometry relative="1" as="geometry">
            <mxPoint x="50" y="310" as="sourcePoint" />
            <mxPoint x="320" y="480" as="targetPoint" />
          </mxGeometry>
        </mxCell>
      </root>
    </mxGraphModel>
  </diagram>
</mxfile>
